<?xml version="1.0" encoding="UTF-8"?>
<svg width="421px" height="420px" viewBox="0 0 421 420" version="1.1" xmlns="http://www.w3.org/2000/svg" xmlns:xlink="http://www.w3.org/1999/xlink">
    <title>Frame Copy</title>
    <g id="Frame-Copy" stroke="none" fill="none" transform="translate(0.5, 0)" fill-rule="evenodd">
        <path d="M403.561,39.5 C409.809,45.748 409.809,55.879 403.561,62.127 L389.861286,75.8272244 C390.762087,77.5348363 391.606391,79.2888003 392.393417,81.0882519 C399.093282,96.4067705 401.975606,111.601224 397.892922,153.502604 L386.883211,266.497396 C382.800527,308.398776 376.957243,323.59323 367.272241,338.911748 C357.587239,354.230267 344.3938,366.25233 328.277047,374.444763 C312.160294,382.637196 296.540749,387 254.639368,387 L221.747883,387.003615 C178.328257,425.834034 111.225496,424.777904 69.094,383.838 C68.2573433,383.025015 67.0245211,381.802989 65.5553467,380.336556 L64.8610658,379.642987 C63.0356101,377.817979 60.9118774,375.684395 58.7570209,373.517446 L57.3187707,372.07089 C54.9237745,369.661794 52.5636469,367.28701 50.6048532,365.324061 L49.6153231,364.333373 L49.0818231,363.800223 C47.9584793,362.678512 47.052194,361.779714 46.467,361.211 C45.9446595,360.70348 45.4256138,360.189428 44.9102458,359.66912 L45.1517758,359.909578 C44.8130302,359.570906 44.4759661,359.229574 44.141,358.885 C42.88046,357.58774 41.6577308,356.266806 40.4728126,354.923617 C4.01981146,313.601687 3.35138438,251.219663 38.4713865,209.12742 L43.8929215,153.502604 C47.975606,111.601224 53.8188897,96.4067705 63.5038915,81.0882519 C73.1888932,65.7697334 86.3823326,53.7476704 102.499085,45.5552371 C118.615838,37.3628037 134.235384,33 176.136764,33 L289.131556,33 C304.377672,33 316.031726,33.5776004 325.388716,34.7071173 L350.764,9.33 C357.013,3.083 367.144,3.083 373.392,9.331 L403.561,39.5 Z" id="Combined-Shape" fill="#FFFFFF"></path>
    </g>
</svg>