<?xml version="1.0" encoding="UTF-8"?>
<svg width="421px" height="420px" viewBox="0 0 421 420" version="1.1" xmlns="http://www.w3.org/2000/svg" xmlns:xlink="http://www.w3.org/1999/xlink">
    <title>Frame</title>
    <g id="Frame" stroke="none" fill="none" transform="translate(0.5, 0)" fill-rule="evenodd" stroke-width="1">
        <g id="Group" transform="translate(12, 4)">
            <path d="M164.136764,29 L277.131556,29 C319.032936,29 333.802297,33.3628037 348.322582,41.5552371 C362.842866,49.7476704 373.693552,61.7697334 380.393417,77.0882519 C387.093282,92.4067705 389.975606,107.601224 385.892922,149.502604 L374.883211,262.497396 C370.800527,304.398776 364.957243,319.59323 355.272241,334.911748 C345.587239,350.230267 332.3938,362.25233 316.277047,370.444763 C300.160294,378.637196 284.540749,383 242.639368,383 L129.644577,383 C87.7431962,383 72.9738352,378.637196 58.453551,370.444763 C43.9332668,362.25233 33.0825802,350.230267 26.3827153,334.911748 C19.6828503,319.59323 16.8005266,304.398776 20.883211,262.497396 L31.8929215,149.502604 C35.975606,107.601224 41.8188897,92.4067705 51.5038915,77.0882519 C61.1888932,61.7697334 74.3823326,49.7476704 90.4990854,41.5552371 C106.615838,33.3628037 122.235384,29 164.136764,29 Z" id="Rectangle-2" fill="#3C6AD8"></path>
            <g id="Layer_1" transform="translate(-53, -50)" fill-rule="nonzero">
                <path d="M323.882,213.723 C320.007,209.848 301.255,191.096 301.255,191.096 C270.013,159.854 224.425,154.789 199.432,179.782 C194.689,184.525 191.033,190.011 188.434,196 C183.613,207.107 172.785,214.451 160.688,214.967 C133.134,216.141 105.932,227.433 85.129,248.848 C43.117,292.096 43.123,361.643 85.141,404.885 C85.908,405.674 86.686,406.446 87.47,407.208 C87.469,407.209 87.468,407.21 87.467,407.211 C90.947,410.593 105.782,425.648 110.094,429.838 C153.336,471.857 222.883,471.862 266.131,429.85 C287.546,409.047 298.838,381.845 300.012,354.291 C300.527,342.194 307.872,331.366 318.979,326.545 C324.968,323.945 330.454,320.29 335.197,315.547 C360.19,290.553 355.124,244.965 323.882,213.723 Z" id="Path" fill="#F06423"></path>
                <path d="M421.934,62.873 L444.561,85.5 C450.809,91.748 450.809,101.879 444.561,108.127 L406.849,145.839 C402.683,150.005 395.93,150.005 391.764,145.839 L391.764,145.839 L361.594,115.669 L361.594,115.669 C357.428,111.503 357.428,104.75 361.594,100.584 L399.306,62.872 C405.555,56.625 415.686,56.625 421.934,62.873 Z" id="Path" fill="#F06423"></path>
                <rect id="Rectangle" fill="#784119" transform="translate(354.0516, 176.0068) rotate(45) translate(-354.0516, -176.0068)" x="348.718103" y="128.007254" width="10.6668977" height="95.9990794"></rect>
                <path d="M277.366,332.046 C277.929,319.812 285.119,308.792 296.353,303.915 C302.341,301.316 307.826,297.66 312.568,292.918 C337.562,267.924 332.496,222.337 301.254,191.095 C270.012,159.853 224.424,154.788 199.431,179.781 C194.688,184.524 191.032,190.01 188.433,195.999 C183.612,207.106 172.784,214.45 160.687,214.966 C133.133,216.14 105.931,227.432 85.128,248.847 C43.116,292.095 43.122,361.642 85.14,404.884 C128.776,449.791 200.561,450.181 244.686,406.055 C265.236,385.506 276.128,358.957 277.366,332.046 Z" id="Path" fill="#FAA51E"></path>
                <path d="M210.745,349.487 L203.203,341.945 C196.955,335.697 196.955,325.566 203.203,319.318 L271.085,251.436 L278.627,258.978 C291.124,271.475 291.124,291.736 278.627,304.233 L233.372,349.488 C227.124,355.736 216.994,355.736 210.745,349.487 Z" id="Path" fill="#D26E28"></path>
                <circle id="Oval" fill="#FFD205" cx="222.059" cy="270.291" r="48"></circle>
                <rect id="Rectangle" fill="#A55523" transform="translate(295.5981, 196.7555) rotate(-135) translate(-295.5981, -196.7555)" x="274.264844" y="92.7564588" width="42.6665908" height="207.998005"></rect>
                <path d="M414.392,55.331 L437.019,77.958 C443.267,84.206 443.267,94.337 437.019,100.585 L399.307,138.297 C395.141,142.463 388.388,142.463 384.222,138.297 L384.222,138.297 L354.052,108.127 L354.052,108.127 C349.886,103.961 349.886,97.208 354.052,93.042 L391.764,55.33 C398.013,49.083 408.144,49.083 414.392,55.331 Z" id="Path" fill="#FAA51E"></path>
                <circle id="Oval" fill="#463C4B" cx="222.059" cy="270.291" r="32"></circle>
                <path d="M182.461,366.458 L176.804,372.115 C173.68,375.239 168.614,375.239 165.49,372.115 L159.833,366.458 C155.667,370.624 144.693,366.402 135.32,357.03 C125.947,347.657 121.726,336.683 125.892,332.517 L120.235,326.86 C117.111,323.736 117.111,318.67 120.235,315.546 L125.892,309.889 C129.016,306.765 134.082,306.765 137.206,309.889 L182.461,355.144 C185.585,358.268 185.585,363.334 182.461,366.458 Z" id="Path" fill="#A55523"></path>
                <rect id="Rectangle" fill="#D7E6F0" transform="translate(366.3107, 126.0448) rotate(-135) translate(-366.3107, -126.0448)" x="344.977362" y="122.0448" width="42.6665908" height="7.99992328"></rect>
                <rect id="Rectangle" fill="#D26E28" transform="translate(343.6824, 148.6722) rotate(-135) translate(-343.6824, -148.6722)" x="322.349066" y="144.6722" width="42.6665908" height="7.99992328"></rect>
                <rect id="Rectangle" fill="#D26E28" transform="translate(322.9406, 169.414) rotate(-135) translate(-322.9406, -169.414)" x="301.607302" y="165.414" width="42.6665908" height="7.99992328"></rect>
                <rect id="Rectangle" fill="#D26E28" transform="translate(298.4272, 193.9271) rotate(-135) translate(-298.4272, -193.9271)" x="277.093887" y="189.9271" width="42.6665908" height="7.99992328"></rect>
                <rect id="Rectangle" fill="#D26E28" transform="translate(275.7989, 216.5544) rotate(-135) translate(-275.7989, -216.5544)" x="254.46559" y="212.5544" width="42.6665908" height="7.99992328"></rect>
                <rect id="Rectangle" fill="#D26E28" transform="translate(253.1719, 239.1819) rotate(-135) translate(-253.1719, -239.1819)" x="231.838608" y="235.1819" width="42.6665908" height="7.99992328"></rect>
                <rect id="Rectangle" fill="#A5C3DC" transform="translate(385.1635, 144.8948) rotate(45) translate(-385.1635, -144.8948)" x="379.8301" y="140.894839" width="10.6668977" height="7.99992328"></rect>
                <circle id="Oval" fill="#D7E6F0" cx="425.706" cy="89.272" r="5.333"></circle>
                <circle id="Oval" fill="#D7E6F0" cx="408.735" cy="106.243" r="5.333"></circle>
                <circle id="Oval" fill="#D7E6F0" cx="391.764" cy="123.213" r="5.333"></circle>
                <circle id="Oval" fill="#D7E6F0" cx="403.078" cy="66.645" r="5.333"></circle>
                <circle id="Oval" fill="#D7E6F0" cx="386.108" cy="83.615" r="5.333"></circle>
                <circle id="Oval" fill="#D7E6F0" cx="369.137" cy="100.586" r="5.333"></circle>
                <g id="Group" fill="#D7E6F0">
                    <circle id="Oval" cx="171.147" cy="360.801" r="4"></circle>
                    <circle id="Oval" cx="157.948" cy="347.602" r="4"></circle>
                    <circle id="Oval" cx="144.749" cy="334.402" r="4"></circle>
                    <circle id="Oval" cx="131.549" cy="321.203" r="4"></circle>
                </g>
            </g>
        </g>
    </g>
</svg>